<svg xmlns="http://www.w3.org/2000/svg" width="100" height="100" fill="none"><circle cx="50" cy="50" r="50" fill="#1E5DFF"/><g fill="#fff" clip-path="url(#a)"><path d="M49.999 20C33.459 20 20 33.458 20 50s13.459 30 29.999 30c16.543 0 30-13.458 30-30s-13.457-30-30-30zm0 56c-14.336 0-26-11.663-26-26s11.665-26 26-26c14.338 0 26 11.663 26 26S64.34 76 50 76z"/><path d="M64.857 47.828H51.999v-17a2 2 0 0 0-1.999-2 2 2 0 0 0-1.998 2v20.999h16.855a2 2 0 0 0 0-3.999z"/></g><defs><clipPath id="a"><path fill="#fff" d="M20 20h60v60H20z"/></clipPath></defs></svg>