<svg xmlns="http://www.w3.org/2000/svg" width="40" height="40" fill="none"><g clip-path="url(#a)"><path fill="#1E5DFF" d="M19.431.01C11.484.29 4.881 6.49 4.12 14.404a16.052 16.052 0 0 0 .32 5.084 15.992 15.992 0 0 0 1.074 3.166c1.6 3.79 5.299 10.129 13.598 17.026a1.387 1.387 0 0 0 1.772 0c8.3-6.889 11.998-13.229 13.606-17.034.467-1 .828-2.059 1.074-3.166.074-.32.107-.5.107-.5.188-.984.287-1.993.287-3.026C35.957 6.949 28.502-.31 19.43.01zm.566 23.883a7.75 7.75 0 0 1-7.75-7.75 7.75 7.75 0 0 1 7.75-7.751 7.75 7.75 0 0 1 7.75 7.75 7.75 7.75 0 0 1-7.75 7.75z"/></g><defs><clipPath id="a"><path fill="#fff" d="M0 0h40v40H0z"/></clipPath></defs></svg>