<svg width="40" height="40" fill="none" xmlns="http://www.w3.org/2000/svg"><g clip-path="url(#clip0_0_180)"><path d="M38.911 29.356l-5.582-5.582c-1.993-1.994-5.383-1.196-6.18 1.395-.598 1.795-2.592 2.791-4.386 2.393-3.987-.997-9.37-6.18-10.367-10.367-.598-1.794.598-3.788 2.393-4.386 2.591-.797 3.389-4.187 1.395-6.18l-5.582-5.582C9.007-.35 6.615-.35 5.219 1.047L1.431 4.835c-3.788 3.987.4 14.553 9.77 23.923 9.37 9.37 19.935 13.756 23.922 9.769l3.788-3.788c1.396-1.595 1.396-3.987 0-5.383z" fill="#1E5DFF"/></g><defs><clipPath id="clip0_0_180"><path fill="#fff" d="M0 0h40v40H0z"/></clipPath></defs></svg>