<svg width="60" height="60" fill="none" xmlns="http://www.w3.org/2000/svg"><g clip-path="url(#clip0_0_47)"><path d="M30 60c16.569 0 30-13.431 30-30C60 13.431 46.569 0 30 0 13.431 0 0 13.431 0 30c0 16.569 13.431 30 30 30z" fill="url(#paint0_linear_0_47)"/><path d="M30 55C16.215 55 5 43.785 5 30S16.215 5 30 5s25 11.215 25 25-11.215 25-25 25z" fill="url(#paint1_linear_0_47)"/><path opacity=".3" d="M42.85 23.02a2.15 2.15 0 00-2.151 2.15c0 .583.233 1.108.608 1.496l-4.415 4.28-4.58-7.264a2.578 2.578 0 001.212-2.184 2.587 2.587 0 10-5.173 0c0 .92.484 1.723 1.209 2.182l-4.579 7.266-4.413-4.28a2.14 2.14 0 00.608-1.495 2.15 2.15 0 10-2.15 2.15c.13 0 .257-.016.381-.038l2.04 9.907h18.981l2.04-9.907c.124.022.25.038.381.038a2.15 2.15 0 100-4.301zM21.688 38.361l-1.117 4.603h20.732l-1.117-4.602H21.688z" fill="#000"/><path d="M41.912 22.082a2.15 2.15 0 00-2.15 2.151c0 .582.232 1.108.608 1.495l-4.416 4.28-4.58-7.264a2.578 2.578 0 001.213-2.184 2.587 2.587 0 10-5.174 0c0 .92.485 1.724 1.21 2.182l-4.58 7.267-4.413-4.28a2.14 2.14 0 00.609-1.496 2.15 2.15 0 10-2.15 2.15c.13 0 .256-.015.38-.038l2.04 9.907h18.982l2.04-9.907c.123.023.25.039.38.039a2.15 2.15 0 100-4.302zM20.75 37.424l-1.116 4.602h20.731l-1.117-4.602H20.75z" fill="#fff"/></g><defs><linearGradient id="paint0_linear_0_47" x1="0" y1="30" x2="60" y2="30" gradientUnits="userSpaceOnUse"><stop stop-color="#FFCA05"/><stop offset="1" stop-color="#FAAC18"/></linearGradient><linearGradient id="paint1_linear_0_47" x1="5" y1="30" x2="55" y2="30" gradientUnits="userSpaceOnUse"><stop stop-color="#FFB72B"/><stop offset="1" stop-color="#FFD435"/></linearGradient><clipPath id="clip0_0_47"><path fill="#fff" d="M0 0h60v60H0z"/></clipPath></defs></svg>