<svg xmlns="http://www.w3.org/2000/svg" width="40" height="40" fill="none"><g fill="#1E5DFF" clip-path="url(#a)"><path d="M20.078 16.406a3.52 3.52 0 0 0-3.515 3.516 3.52 3.52 0 0 0 3.515 3.515 3.52 3.52 0 0 0 3.516-3.515 3.52 3.52 0 0 0-3.516-3.516z"/><path d="M19.922 0C8.937 0 0 8.937 0 19.922 0 30.907 8.937 40 19.922 40 30.907 40 40 30.907 40 19.922S30.907 0 19.922 0zm8.36 25.781a4.678 4.678 0 0 1-3.83-2c-1.075 1.217-2.628 2-4.374 2a5.866 5.866 0 0 1-5.86-5.86c0-3.23 2.63-5.858 5.86-5.858 1.324 0 2.533.458 3.516 1.201v-.03a1.171 1.171 0 1 1 2.343 0v5.86a2.347 2.347 0 0 0 2.344 2.343 2.347 2.347 0 0 0 2.344-2.343c0-7.843-5.19-11.719-10.547-11.719-5.816 0-10.547 4.731-10.547 10.547 0 5.816 4.731 10.547 10.547 10.547 2.344 0 4.56-.751 6.411-2.172 1.236-.944 2.652.919 1.428 1.858a12.765 12.765 0 0 1-7.839 2.657c-7.108 0-12.89-5.782-12.89-12.89 0-7.108 5.782-12.89 12.89-12.89 6.477 0 12.89 4.775 12.89 14.062a4.692 4.692 0 0 1-4.687 4.687z"/></g><defs><clipPath id="a"><path fill="#fff" d="M0 0h40v40H0z"/></clipPath></defs></svg>