<svg width="100" height="100" fill="none" xmlns="http://www.w3.org/2000/svg"><circle cx="50" cy="50" r="50" fill="#1E5DFF"/><path d="M47.314 73.59V59.469l2.676.438 2.676-.438V73.59h-5.352zM31.628 25.352s-9.243-4.621-9.209 4.43c0 0-.09 7.995 5.128 14.55 0 0 4.07 5.78 11.12 7.984 0 0-1.956-3.013-2.935-5.307 0 0-6.409-3.643-8.714-11.154 0 0-4.07-10.311 4.599-6.646v-3.857h.011z" fill="#fff"/><path d="M49.99 59.906c4.644 0 8.501-4.194 8.501-4.194 4.779-4.824 7.388-13.01 7.388-13.01C69.285 33.786 68.037 20 68.037 20H31.932s-1.237 13.786 2.17 22.702c0 0 2.609 8.198 7.388 13.01 0 0 3.856 4.194 8.5 4.194z" fill="#fff"/><path d="M68.409 25.352s9.242-4.621 9.209 4.43c0 0 .09 7.995-5.128 14.55 0 0-4.07 5.78-11.12 7.984 0 0 1.956-3.013 2.934-5.307 0 0 6.41-3.643 8.715-11.154 0 0 4.07-10.311-4.6-6.646v-3.857h-.01zm-2.35 49.97H33.91V80h32.148v-4.678zM55.5 73.59H44.48v1.732H55.5v-1.731z" fill="#fff"/></svg>