<svg xmlns="http://www.w3.org/2000/svg" width="100" height="100" fill="none"><circle cx="50" cy="50" r="50" fill="#1E5DFF"/><g clip-path="url(#a)"><path fill="#fff" d="M45 28v5h7.5v5h5v-5h7.499v-5H45zm0 14.999c-.675 0-1.302.272-1.777.722L38.975 48h-6.476a2.507 2.507 0 0 0-2.5 2.5v15c0 1.375 1.125 2.5 2.5 2.5h4.248l6.876 4.575c.4.274.878.425 1.377.425h12.502A2.46 2.46 0 0 0 59 72.503l10-7.5A2.537 2.537 0 0 0 70 63V45.499c0-1.375-1.124-2.5-2.5-2.5H45zm30 2.5v15h5v-15h-5zM52.5 48v7.5h5L50 68v-7.499h-5L52.5 48zM20 50.5V63h5V50.5h-5z"/></g><defs><clipPath id="a"><path fill="#fff" d="M20 20h60v60H20z"/></clipPath></defs></svg>